<?xml version="1.0" standalone="no"?>
<!DOCTYPE svg PUBLIC "-//W3C//DTD SVG 1.1//EN" "http://www.w3.org/Graphics/SVG/1.1/DTD/svg11.dtd" >
<svg xmlns="http://www.w3.org/2000/svg">
<metadata></metadata>
<defs>
<font id="font-iconsRegular" horiz-adv-x="2027" >
<font-face units-per-em="2048" ascent="1638" descent="-410" />
<missing-glyph horiz-adv-x="1228" />
<glyph horiz-adv-x="0" />
<glyph horiz-adv-x="2048" />
<glyph unicode=" "  horiz-adv-x="1228" />
<glyph unicode="&#x09;" horiz-adv-x="1228" />
<glyph unicode="&#xa0;" horiz-adv-x="1228" />
<glyph unicode="A" />
<glyph unicode="B" />
<glyph unicode="C" />
<glyph unicode="D" />
<glyph unicode="E" />
<glyph unicode="F" />
<glyph unicode="G" />
<glyph unicode="H" />
<glyph unicode="I" />
<glyph unicode="J" />
<glyph unicode="K" />
<glyph unicode="L" />
<glyph unicode="M" />
<glyph unicode="N" />
<glyph unicode="O" />
<glyph unicode="P" />
<glyph unicode="Q" />
<glyph unicode="R" />
<glyph unicode="S" />
<glyph unicode="T" />
<glyph unicode="U" />
<glyph unicode="V" />
<glyph unicode="W" />
<glyph unicode="X" />
<glyph unicode="Y" />
<glyph unicode="Z" />
<glyph unicode="a" d="M333 624q0 25 34 85l866 864q24 15 34 21t19.5 11.5t13.5 6t8 1.5q2 0 4 0.5t6 -0.5q7 -1 13 -1h15q57 0 102 -31l16 -27q23 -40 23 -78q0 -57 -53 -108l-762 -758l762 -762q24 -38 34 -68q5 -17 5 -36q0 -14 -3 -28q-7 -34 -36 -68q-56 -23 -116 -23t-85 23l-866 862 q-34 89 -34 114z" />
<glyph unicode="b" d="M351 -284q-3 14 -3 28q0 18 6 36q10 30 33 68l762 762l-762 758q-53 52 -53 109q0 37 22 77l17 27q45 31 102 31h14q7 0 16 0.5t10.5 0.5t12.5 -4.5t22 -11.5t38 -24l866 -864q14 -24 19.5 -34t10 -27t4.5 -23.5t-4.5 -28t-10 -36t-19.5 -50.5l-866 -862 q-23 -23 -84.5 -23t-116.5 23q-29 34 -36 68z" />
<glyph unicode="c" d="M296 604.5q0 15.5 23 52.5l568 568q16 12 24.5 18t14.5 8t7.5 2t7 -1t11.5 -1h6q49 0 70 -18l10 -21q15 -27 15 -50q0 -6 -1 -12q-5 -28 -36 -58l-498 -496l498 -500q17 -24 23.5 -43.5t1.5 -42t-25 -45.5q-37 -17 -74 -17h-4q-39 1 -51 17l-568 567q-23 57 -23 72.5z M940 657l573 568q20 21 29 27q6 4 12 4q4 0 8 -2q10 -4 13 -3h10q44 0 70 -18l8 -21q13 -25 13 -48q0 -37 -34 -72l-507 -496l507 -500q24 -36 26 -64q0 -1 1 -3q0 -28 -27 -64l-8 -2q-35 -14 -64 -14q-4 1 -8 1q-32 2 -49 15l-573 567q-2 6 -7 16q-22 44 -22 64q0 21 29 45 z" />
<glyph unicode="d" d="M332 96l508 500l-508 496q-34 34 -34 72q0 23 13 48l8 21q26 18 70 18h10q5 0 12 2t11 2t14 -7t25 -23l573 -568q28 -24 28 -44l1 -1q0 -20 -22 -64q-2 -5 -3.5 -8.5t-3.5 -7.5l-573 -567q-17 -13 -49 -15q-4 0 -8 -1q-28 0 -64 14l-8 2q-27 36 -27 64q0 29 27 67z M958 96l498 500l-498 496q-36 34 -36 72q0 23 14 48l10 21q21 18 70 18h6q6 0 11.5 1t7 1t7.5 -2t14.5 -8t24.5 -18l568 -568q23 -37 23 -52.5t-23 -72.5l-568 -567q-13 -17 -48 -17h-3q-38 0 -78 17q-27 36 -27 62q0 29 27 69z" />
<glyph unicode="e" d="M49 -224.5q0 53.5 41 87.5l744 751l-744 744q-41 35 -41 89t41 91q34 34 87.5 34t90.5 -34l742 -745l743 745q41 34 94.5 34t91.5 -34q35 -37 35 -91t-35 -89l-747 -744l747 -751q35 -34 35 -87.5t-35 -88.5q-40 -37 -96 -37q-53 0 -90 37l-743 743l-742 -743 q-34 -37 -90 -37q-54 0 -88 37q-41 35 -41 88.5z" />
<glyph unicode="f" d="M259 333.5q0 63.5 44 104.5l596 598q46 43 107 43q60 0 106 -43l596 -598q45 -45 45 -106q0 -58 -45 -103q-44 -44 -107 -44t-106 44l-489 490l-490 -490q-44 -44 -107 -44t-106 44q-44 41 -44 104.5z" />
<glyph unicode="g" d="M259 929.5q0 63.5 44 104.5q43 44 106 44t107 -44l490 -489l489 489q43 44 106 44t107 -44q45 -45 45 -102q0 -62 -45 -107l-596 -598q-46 -43 -106 -43q-61 0 -107 43l-596 598q-44 41 -44 104.5z" />
<glyph unicode="h" d="M164 197v-463h461v463h-461zM164 360h461v465h-461v-465zM164 1001h461v461h-461v-461zM926 -145v-121h956v121h-956zM932 55h950v117h-950v-117zM936 381h948v115h-948v-115zM936 700h948v121h-948v-121zM940 1022h952v121h-952v-121zM940 1346h952v116h-952v-116z" />
<glyph unicode="i" d="M180 188h463v-462h-463v462zM180 373v467h463v-467h-463zM180 995v465h463v-465h-463zM799 188h465v-462h-465v462zM799 373v467h465v-467h-465zM799 995v465h465v-465h-465zM1421 188h461v-462h-461v462zM1421 373v467h461v-467h-461zM1421 995v465h461v-465h-461z" />
<glyph unicode="j" d="M35 319q232 -312 633 -374l155 -13q277 0 529 138q155 87 262.5 217t144.5 286h13q142 0 221 86q-18 -2 -58 -2q-98 0 -163 27q79 4 134.5 39t78.5 86q-27 -16 -75.5 -25.5t-97.5 -9.5q-43 0 -59 10q0 22 -10 45q-19 70 -59 133t-95 109q-54 41 -114.5 62.5t-116.5 21.5 h-31q20 5 42 12.5t38 12.5q63 13 82 32q14 14 6.5 29t-31.5 12q-83 -18 -118 -34q-10 -3 -18 -7.5t-13 -7t-8 -2.5q2 1 12 7.5t18 9.5l17 8.5t19 10t16.5 10.5t13.5 14.5t6 19.5q-89 -12 -154 -72q24 28 27 60q-91 -65 -182 -205q-68 -122 -121 -266q-81 81 -150 116 q-210 116 -501 220v-9q0 -42 14.5 -81t54.5 -81.5t103 -72.5q-5 1 -11 1q-36 0 -116 -20q15 -71 66 -119t157 -71q-87 -7 -137 -55q2 -3 8.5 -13.5t12.5 -17.5t14 -12q43 -52 118 -74q25 -5 50 -5q19 0 38 3q-53 -22 -69.5 -54t-1.5 -61q14 -24 44.5 -37.5t61.5 -13.5h27 q-154 -158 -371 -158h-6q-97 0 -188.5 34t-161.5 101z" />
<glyph unicode="k" d="M51 -317q0 -22 13.5 -35t35.5 -13h1833q22 0 38 13.5t16 34.5v1855q0 20 -16 34.5t-38 14.5h-1833q-21 0 -35 -14t-14 -35v-1855zM961 551v244h180v215q0 137 82 231q87 90 227 90q55 0 92 -4q37 0 60 -2q8 0 27 -1t30 -1l-10 -231h-162q-56 0 -74 -27t-18 -84v-186h264 l-12 -244h-252v-688h-254v688h-180z" />
<glyph unicode="l" d="M47 -319v1859q0 22 14.5 35.5t36.5 13.5h1616l-457 -639l-159 160q-30 28 -66 28q-1 0 -1 1q-35 0 -66 -29l-62 -63q-6 15 -18 30q-108 152 -287 152q-118 0 -209 -68q-151 -108 -151 -293q0 -137 82.5 -229t203.5 -117l441 -442q32 -29 65 -29q39 0 68 29l448 450 q29 29 29 64q0 36 -29 65l-20 23l461 387v-1388q0 -21 -15 -34.5t-37 -13.5h-1837q-22 0 -36.5 13.5t-14.5 34.5zM279 872q0 -52 14 -98q27 -85 104.5 -152t196.5 -67q60 0 113 20l301 -241q8 -8 14 -8q4 0 6 2l14 6l945 794v412q0 21 -15 35t-37 14h-163l-723 -995 q-20 -14 -30.5 -12.5t-14.5 10.5q-5 3 -39 45q-11 17 -39.5 54t-40.5 54q26 63 26 127q0 134 -93.5 225t-223.5 91q-117 0 -205 -76q-101 -90 -110 -217v-23z" />
<glyph unicode="m" d="M51 -317v1855q0 21 14 35t35 14h1833q22 0 38 -14.5t16 -34.5v-1855q0 -21 -16 -34.5t-38 -13.5h-1833q-22 0 -35.5 13t-13.5 35zM131 348q110 -147 260 -232.5t322 -111.5l143 -12q107 0 233.5 29t251.5 98q143 80 242.5 200t132.5 263h13q129 0 202 80q-24 -3 -51 -3 q-95 0 -151 25q72 4 123 36.5t73 78.5q-55 -33 -160 -33q-39 0 -53 10q0 21 -10 41q-34 131 -141 223q-33 26 -70.5 43.5t-73 26t-69.5 8.5h-29q9 2 74 23q55 8 75 28q13 14 6.5 28t-28.5 11q-77 -18 -109 -32q-6 -3 -13 -6l-10.5 -4.5l-7 -3t-6.5 -1.5l29 15q5 3 13.5 7 t14.5 7t13 7.5t12 9t8.5 12t4.5 16.5q-84 -13 -142 -68q22 26 25 56q-85 -61 -168 -189q-61 -110 -111 -243q-80 77 -137 106q-203 110 -461 201v-6q0 -39 13 -75.5t50 -76t95 -66.5h-9q-31 0 -108 -16q8 -43 29.5 -75.5t65.5 -59t110 -41.5q-46 -4 -74 -15.5t-53 -35.5 q3 -4 7 -10l7 -10.5t8 -10t11 -8.5q39 -48 109 -68q22 -5 46 -5q17 0 35 3q-33 -14 -52 -33t-20 -37t7 -36q13 -21 41 -34t57 -13h25q-144 -144 -342 -144h-6q-89 0 -173.5 31t-148.5 92z" />
<glyph unicode="n" d="M338 -68q0 -59 10 -69h33q33 126 53 177q121 306 410 306q78 0 142 -22.5t104 -58t67.5 -82t39 -91.5t11.5 -90q0 -31 -6 -66t-24.5 -78.5t-47 -77t-79.5 -56.5t-117 -23q-54 0 -95.5 18t-65.5 46.5t-36 60t-12 63.5q0 84 47 123q12 -30 35.5 -55t56.5 -25q47 0 80 31 t33 88q0 53 -45 88t-117 35q-17 0 -38 -4.5t-51.5 -21t-54.5 -42t-41.5 -74t-17.5 -110.5q0 -75 26 -134.5t64.5 -93.5t86 -56.5t86 -30.5t69.5 -8q14 0 36.5 3t60.5 13.5t74.5 27t76 48t68.5 72t48 102.5t19 137q0 96 -30 175t-78.5 129.5t-112.5 85t-129.5 49t-132.5 14.5 q-100 0 -190.5 -35.5t-161 -100.5t-112.5 -165.5t-42 -221.5zM338 1303q0 -121 42 -222.5t112.5 -167t161 -101.5t190.5 -36q67 0 132.5 15t129.5 50t112.5 86.5t78.5 130.5t30 175q0 74 -19 135.5t-48.5 101.5t-68.5 71.5t-75.5 48.5t-74 27.5t-60.5 13.5t-37 3 q-25 0 -56 -6t-70 -19t-74 -38t-65.5 -59t-48.5 -85.5t-18 -113.5q0 -64 17.5 -112.5t41.5 -74t54.5 -41.5t51.5 -20t38 -4q74 0 118 34.5t44 94.5q0 51 -33.5 82t-79.5 31q-12 0 -23.5 -4.5t-19.5 -10t-17 -15t-13.5 -15t-11 -15t-7.5 -10.5q-47 20 -47 108q0 32 12 64.5 t35.5 62t66 48t95.5 18.5q66 0 117 -23.5t79.5 -57.5t47 -77.5t24.5 -78t6 -64.5q0 -46 -11.5 -90.5t-39 -89.5t-67.5 -78.5t-104 -54.5t-142 -21q-72 0 -133.5 18.5t-104 45t-78.5 69.5t-57 79t-40 87t-26.5 79t-17.5 70q-4 17 -6 25h-33q-10 -10 -10 -69zM381 614 q17 -4 32.5 -9.5t32 -14t27.5 -14.5t28 -18t24 -17t25.5 -18.5t22.5 -16.5q20 12 117 30.5t125 18.5h70q99 0 188.5 -34t149.5 -82t110 -110.5t75.5 -109.5t41.5 -88q53 102 129 193q-37 48 -91.5 90.5t-96 66t-103.5 54.5v10h70q71 0 156.5 -28t144.5 -73q12 15 55 82 t64 88q-19 22 -61 87.5t-58 84.5q-68 -45 -150.5 -72.5t-150.5 -27.5h-70v10q63 33 104 57t95.5 69t91.5 96q-79 75 -119 182q-15 -39 -42.5 -85.5t-79.5 -107t-114.5 -108t-155 -80.5t-194.5 -33h-53q-29 0 -125.5 14t-122.5 27q-94 -72 -192 -113z" />
<glyph unicode="o" d="M338 614q21 -21 64 -88t55 -82q59 45 144.5 73t156.5 28h69v-10q-62 -31 -103.5 -55t-95.5 -66t-91 -90q76 -91 129 -193q16 41 41.5 88t75.5 109.5t110 110.5t149.5 82t188.5 34h69q28 0 125 -18.5t117 -30.5q1 1 22 16.5t26 19t24 16.5t29 18t27 14t32.5 14.5t32.5 9.5 q-101 41 -193 113q-26 -13 -122.5 -27t-125.5 -14h-53q-102 0 -194.5 33t-155 80.5t-114.5 108t-79.5 107t-42.5 85.5q-41 -108 -118 -182q37 -51 91 -95.5t95.5 -69.5t103.5 -57v-10h-69q-68 0 -150.5 27.5t-150.5 72.5q-16 -19 -58 -84.5t-61 -87.5zM788 2q0 -75 19 -137 t48 -102.5t68.5 -72t76 -48t74.5 -27t60.5 -13.5t36.5 -3q31 0 69.5 8t86 30.5t86 56.5t64.5 93.5t26 134.5q0 62 -17.5 110.5t-41.5 74t-54.5 42t-51.5 21t-38 4.5q-72 0 -116.5 -35t-44.5 -88q0 -57 32.5 -88t79.5 -31q33 0 56.5 25t35.5 55q48 -40 48 -123 q0 -32 -12 -63.5t-36 -60t-65.5 -46.5t-95.5 -18q-66 0 -117 23t-80 56.5t-47.5 77t-24.5 78.5t-6 66q0 45 11.5 90t39 91.5t68 82t104.5 58t142 22.5q71 0 132 -20.5t102 -45t79 -75t57.5 -80t41.5 -91.5t27 -78.5t18 -70.5q4 -15 6 -22h32q11 11 11 69q0 121 -42 221.5 t-112.5 165.5t-161 100.5t-190.5 35.5q-67 0 -132.5 -14.5t-130 -49t-113 -85t-78.5 -129.5t-30 -175zM788 1233q0 -96 30 -175t79 -130.5t113 -86.5t129.5 -50t132.5 -15q100 0 190.5 36t161 101.5t112.5 167t42 222.5q0 58 -11 69h-32q-2 -8 -6 -25q-8 -33 -13 -53 t-18 -59.5t-25 -66.5t-33 -65t-44.5 -64t-57 -54.5t-71.5 -45.5t-88 -28.5t-107 -11.5q-78 0 -142 21t-104.5 54.5t-68 78.5t-39 89.5t-11.5 90.5q0 30 6 64.5t24.5 78t47.5 77.5t80 57.5t117 23.5q53 0 95.5 -18.5t66 -48t35.5 -62t12 -64.5q0 -87 -48 -108q-1 1 -7.5 10.5 t-11 15t-13.5 15t-17 15t-19.5 10t-23.5 4.5q-46 0 -79 -31t-33 -82q0 -60 43.5 -94.5t117.5 -34.5q17 0 38 4t51.5 20t54.5 41.5t41.5 74t17.5 112.5q0 62 -18 113.5t-48.5 85.5t-65.5 59t-74 38t-70 19t-56 6q-14 0 -37 -3t-60.5 -13.5t-74 -27.5t-75.5 -48.5t-68.5 -71.5 t-48.5 -101.5t-19 -135.5z" />
<glyph unicode="p" d="M49 231h252q19 -6 57 19q1 2 13 21t17.5 29t13.5 31t12 42q42 -26 90.5 -42t81.5 -16q30 -3 74 -3h14q54 1 76 7q20 -39 40 -64t44.5 -39.5t52.5 -14.5q36 0 69 26q26 -19 43.5 -26.5t44.5 -7.5q29 0 55.5 10.5t41.5 27.5q138 -57 199 -57h2q61 1 85 57q7 21 7 40 q0 53 -56 98q29 12 51.5 43.5t28.5 70.5q2 12 2 25q0 47 -30 108q-40 79 -103 113q38 11 60.5 11t48.5 -11q62 -16 102 -16q31 -6 111 -6q73 -25 166 -25q62 0 105.5 27t43.5 69q0 5 -1 9t-4.5 8.5t-6 7.5t-8.5 7t-9 6.5t-10.5 7.5t-11.5 7q-115 53 -341 107.5t-405 54.5 q-154 0 -296.5 -15.5t-240.5 -35.5t-224 -53q-2 12 -6.5 22t-11.5 18.5t-12 14t-16 12t-15 9t-17 9l-15 7.5q-24 9 -108 18t-152 9v-58l49 31l2 2q8 9 15 2q-9 -4 -13 -8l-53 -45l-4 -27l92 62q19 14 19 10q-5 -10 -15 -14l-92 -89v-22l129 106q3 2 7 4t6 3.5t4 1.5 q0 -1 -1 -3l-2 -4t-3 -4.5t-3 -5.5l-137 -119v-26l160 127l16 14q0 -14 -12 -18l-164 -146v-22l160 123q7 10 16 10q0 -1 -1.5 -3.5t-3 -4.5t-4 -5t-3.5 -6l-164 -145v-22l137 110q4 2 8 5.5t7 5.5l2 3q7 -12 -12 -18l-142 -131v-31l123 109q1 1 4 3q12 9 15 1 q-29 -25 -80 -74.5t-62 -60.5v-31l111 100q18 18 18 9q-6 -5 -18 -17l-111 -115v-30l107 100q11 9 15.5 11.5t6.5 -1.5q-6 -4 -10 -18l-119 -115v-26l103 92q16 20 16 10q3 0 1 -2.5t-13 -15.5l-107 -115v-31l103 103l16 8q4 -4 -12 -23l-107 -114v-31l103 102q4 4 8 6t6 2 h2q0 -1 -5 -7.5t-7 -14.5l-107 -115v-26l92 94q14 12 27 12q0 -2 -16 -22l-103 -111v-31l103 107l16 12q3 -6 0.5 -10.5t-12.5 -14.5l-107 -118zM106 250q1 12 5 16l53 58l18 18q0 -5 -10 -23l-47 -61q-5 -6 -10.5 -8.5t-8.5 0.5zM157 254q0 5 3 8l30 41l9 12q0 -12 -4 -22 l-23 -35l-12 -12q-3 3 -3 8zM194 580v12q0 82 18 168q20 92 58 164q16 34 62 34q22 -8 35 -27.5t16 -41.5h-4q-2 10 -7.5 22t-14 22t-17.5 13q-33 7 -53 -18q29 -5 57 -19q-51 -119 -56 -298q-1 -20 -1 -40q0 -156 35 -286q-52 0 -70 8q0 -29 12 -35h-12q-5 8 -9 18.5 t-7 19.5t-7 19.5t-8 18.5l8 4q0 -4 19 -4q43 0 43 43q0 21 -11.5 35t-31.5 14q-8 0 -16 -4.5t-12.5 -9t-6.5 -9.5h-6q-11 89 -13 177zM213 496l4 -70l4 4l-4 66h-4zM221 377q0 13 8 22t19 9q7 0 16.5 -9.5t9.5 -21.5q0 -14 -5 -20.5t-21 -6.5q-12 0 -19.5 9.5t-7.5 17.5z M229 434h9l-5 66h-4v-66zM233 324l15 -27h4l-4 27h-15zM248 434h8v62h-8v-62zM252 324l4 -27h14l-14 37zM264 479l6 -45h4v35zM270 324l4 -27h13l-13 37zM287 334l14 -41h4l-14 45zM307 680q11 101 41 168q112 44 343 81.5t411 37.5q106 0 241 -16.5t245 -39.5t175 -45 q14 -55 58 -78.5t118 -23.5q-7 -29 -44 -45.5t-93 -16.5q-34 0 -64 5.5t-53.5 13t-31.5 8.5q-10 6 -59 2q-32 -3 -50 -3q-9 0 -14 1q-24 5 -70 20t-63 15q-20 0 -88.5 -10.5t-96.5 -10.5q-48 0 -113 15.5t-112 32.5q101 -60 150 -66q-9 -16 -44 -54.5t-53 -52.5 q5 0 23.5 7.5t19.5 7.5l7 -4q-16 -60 -33 -88q-47 18 -78 53q11 14 23.5 46.5t19.5 61.5q-14 -37 -57 -92q-29 22 -83 52.5t-94 44.5q50 -28 151 -110t159 -118q23 -18 126.5 -60.5t118.5 -49.5q51 -33 63 -64q7 -18 7 -36q0 -13 -4 -27q-12 -32 -37 -40q-11 -3 -27 -3 q-22 0 -55 6q-84 20 -227 92q-109 53 -260 53q-12 -2 -42 -7.5t-49.5 -8.5t-54 -2.5t-71.5 6.5q-75 9 -151 48t-126 93q-7 54 -7 108q0 46 5 93zM313 403q-3 12 -3 19.5t3 11.5q66 -43 66 -49q0 -29 -12 -47q-2 -5 -5.5 -10.5t-6.5 -9.5t-5.5 -7.5t-3.5 -5.5l-2 -2 q-6 0 -18 35q-4 4 -8.5 24t-4.5 41zM344 874l4 31q10 -8 10 -22zM784 315q25 7 49 7q16 0 31 -3q5 -2 17.5 -16.5t27 -32.5t21.5 -24q-13 -23 -35 -23q-14 0 -30.5 7.5t-31 20t-27.5 29.5t-22 35zM899 319q45 -3 113 -25.5t102 -47.5q-24 -27 -70 -27q-75 0 -145 100z M1071 526q0 4 7 20t16 35.5t12 28.5l76 -88q-3 -7 -15.5 -23t-15.5 -16q-23 0 -49 17q-9 4 -20 13.5t-11 12.5zM1102 645q18 14 37 37t28 43q46 -3 80.5 -3t57.5 3q23 -16 44 -37.5t40.5 -51t31 -68.5t11.5 -81q0 -19 -6 -35t-18.5 -28.5t-21 -19t-23.5 -15.5q-3 -3 -5 -4 q-79 40 -191 84q13 17 22.5 27t23 17t30.5 9q2 1 9 3t10.5 5t3.5 7q-7 4 -19 4q-23 0 -39 -4zM1217 319q-6 -15 -6 -28q0 -21 17 -37q26 -24 77 -31q19 -5 34 -5q44 0 58 40q1 6 1 11q0 49 -55 73q-36 19 -65 19q-5 0 -10 -1q-32 -3 -51 -41zM1233 315q14 26 43 26 q24 0 59 -17q22 -9 32 -26.5t7 -35.5q-7 -17 -24 -23q-7 -2 -16 -2q-14 0 -34 5q-48 11 -61 28q-8 10 -8 26q0 9 2 19zM1798 852q24 -5 84 -31l57 -30q0 -4 -9 -5h-8q-8 0 -20 1q-17 2 -38 8q-23 5 -48 24q-20 15 -20 27q0 3 2 6z" />
<glyph unicode="q" d="M49 778q0 -42 44 -69t106 -27q93 0 166 25q79 0 110 6q41 0 103 16q26 11 48 11t60 -11q-63 -34 -102 -113q-31 -61 -31 -108q0 -13 2 -25q6 -39 28.5 -70.5t51.5 -43.5q-56 -45 -56 -98q0 -19 7 -40q24 -56 85 -57h2q61 0 199 57q33 -38 97 -38q27 0 44.5 7.5t43.5 26.5 q33 -26 69 -26q76 0 138 118q30 -8 82 -8q35 0 81 4q33 0 81.5 16t90.5 42q4 -21 12 -42t13.5 -31t17.5 -29t13 -21q38 -25 57 -19h252l-4 11l-107 118q-16 16 -12 25q9 -8 17 -12l102 -107v31l-102 111q-17 21 -17 22q13 0 27 -12l92 -94v26l-107 115q-2 8 -7 14.5t-5 7.5 q9 0 17 -8l102 -102v31l-107 114q-16 19 -12 23q13 -4 17 -8l102 -103v31l-107 115q-15 18 -12 18q0 11 17 -10l102 -92v26l-119 115q-2 6 -4.5 10.5t-4.5 6.5l-1 1q2 4 6.5 1.5t15.5 -11.5l107 -100v30l-111 115l-18 17q0 9 18 -9l111 -100v31l-123 119l-18 16q1 3 2.5 4 t3.5 0l4 -2t4.5 -3t3.5 -3l123 -109v31l-141 131q-20 7 -13 18q9 -10 17 -14l137 -110v22l-164 145q-2 3 -5 7t-5 7t-2 5q9 0 16 -10l160 -123v22l-164 146q-12 4 -12 18q8 -6 16 -14l160 -127v26l-137 119q-8 16 -8 17q2 0 4 -1.5t5.5 -3.5t6.5 -4l129 -106v22l-92 89 q-4 2 -8 5.5t-6 5.5l-1 3q2 2 4 0.5t15 -10.5l92 -62l-4 27l-53 45l-13 8q6 7 17 -4l49 -31v58q-68 0 -152 -9t-108 -18l-13 -6.5l-15 -7.5t-13.5 -8t-13.5 -9.5t-11.5 -11t-11.5 -14t-8 -16t-6 -19.5q-193 51 -366 77.5t-396 26.5q-179 0 -405 -54.5t-341 -107.5 q-4 -2 -11.5 -7t-10.5 -7.5t-9 -6.5t-8.5 -7t-6 -7.5t-4.5 -8.5t-1 -9zM74 764q74 0 118 23.5t58 78.5q104 36 303.5 68.5t357.5 32.5q180 0 411 -37.5t343 -81.5q30 -67 41 -168q5 -47 5 -93q0 -54 -7 -108q-50 -54 -126 -93t-151 -48q-37 -6 -71.5 -6.5t-54 2.5t-49.5 8.5 t-42 7.5q-151 0 -260 -53q-143 -72 -227 -92q-33 -6 -55 -6q-16 0 -27 3q-25 8 -37 40q-4 14 -4 27q0 18 7 36q12 31 63 64q15 7 118.5 49.5t126.5 60.5q58 36 159 118t151 110q-40 -14 -93.5 -44t-82.5 -53q-45 57 -58 92q17 -76 43 -108q-31 -35 -78 -53q-16 25 -32 88 l6 4q2 0 20 -7.5t23 -7.5q-18 14 -52.5 52t-43.5 55q48 6 149 66q-135 -48 -225 -48q-28 0 -96.5 10.5t-88.5 10.5q-17 0 -63 -15t-70 -20q-5 -1 -14 -1q-18 0 -51 3q-48 4 -58 -2q-8 -1 -31.5 -8.5t-53.5 -13t-64 -5.5q-56 0 -93 16.5t-44 45.5zM74 791l57 30q60 26 84 31 q7 -14 -17.5 -33t-47.5 -24q-21 -6 -38.5 -8t-27.5 -1t-10 5zM582 487q0 81 37.5 142t89.5 96q23 -3 57 -3t80 3q20 -45 65 -80l-106 -108q-16 4 -39 4l-18 -4q0 -5 3.5 -7.5t10 -4.5t8.5 -3q25 -3 41 -15t35 -38q-112 -44 -191 -84q-23 15 -33 22.5t-25 30.5t-15 49z M616 258q14 -40 57 -40q16 0 36 5q51 7 77 31q17 16 17 37q0 13 -6 28q-19 38 -52 41q-5 1 -9 1q-30 0 -66 -19q-55 -24 -55 -73q0 -5 1 -11zM639 262q-1 4 -1 8q0 14 8 28q10 17 32 26q35 17 59 17q29 0 43 -26q7 -29 -6 -45.5t-61 -27.5q-19 -6 -33 -6q-30 0 -41 26z M831 522l76 88q3 -9 12 -28.5t16 -35.5t7 -20q0 -3 -11 -12.5t-20 -13.5q-26 -17 -49 -17q-3 0 -15.5 16t-15.5 23zM899 246q34 25 102 47.5t113 25.5q-70 -100 -145 -100q-46 0 -70 27zM1083 246q7 7 33 39t33 34q15 3 31 3q24 0 49 -7q-18 -37 -50 -64.5t-61 -27.5 q-22 0 -35 23zM1630 889q8 52 51 69q46 0 62 -34q56 -106 71 -254q5 -59 5 -113q0 -82 -13 -154h-6q-12 23 -35 23q-20 0 -31.5 -14t-11.5 -35q0 -43 43 -43q19 0 19 4l8 -4q-5 -10 -14 -37t-17 -39h-12q12 6 12 35q-18 -8 -69 -8q34 129 34 282v44q-6 179 -57 298 q28 14 57 19q-20 25 -53 18q-13 -4 -24.5 -22t-14.5 -35h-4zM1634 385q0 3 16.5 15t33.5 23l16 11q7 -7 0 -31q0 -21 -4 -41t-8 -24q-12 -35 -19 -35q-9 11 -22 37.5t-13 44.5zM1655 883q0 14 10 22l4 -31zM1708 293h4l14 41l-4 4zM1726 297h13l4 27l-4 10zM1739 377 q0 12 9.5 21.5t16.5 9.5q11 0 19 -9t8 -22q0 -8 -7.5 -17.5t-19.5 -9.5q-16 0 -21 6.5t-5 20.5zM1739 434h4l6 45l-10 -10v-35zM1743 297h14l4 27l-4 10zM1757 434h8v62h-8v-62zM1761 297h4l15 27h-15zM1776 434h8v66h-4zM1792 430l4 -4l4 70h-4zM1815 315q4 -4 8 -12 l30 -41q8 -8 0 -16l-12 12l-22 35zM1831 342q6 -4 18 -18l54 -58l4 -16q-2 -2 -5 -2q-6 0 -14 10l-47 61q-10 18 -10 23z" />
<glyph unicode="r" d="M119 -104q0 -132 68 -203.5t167 -71.5q83 0 130.5 56t47.5 141q0 69 -48 112t-93 47v136l389 311q119 -86 283.5 -220t279.5 -253q31 59 45.5 85.5t46 81.5t51 83.5t54 77t63 78t70.5 70t83.5 69.5t93.5 60.5t110 57.5q-52 24 -99 50t-88 56.5t-75.5 57.5t-68.5 64 t-58.5 64.5t-53.5 70.5t-47 69.5t-45 74.5t-41 73t-41 76q-172 -170 -563 -469l-389 309v135q28 6 58 22.5t56.5 53.5t26.5 84q0 89 -47 143t-131 54q-100 0 -167.5 -69t-67.5 -204v-379l413 -336l-413 -340v-378zM995 614q49 31 141 107.5t124 116.5q21 -36 102.5 -120 t116.5 -104q-42 -36 -121.5 -120.5t-97.5 -116.5q-20 26 -67.5 69t-120.5 103.5t-77 64.5z" />
<glyph unicode="s" d="M119 614q101 -46 186 -108t139 -114.5t115 -142t88 -137t83 -152.5q3 -6 5 -9q115 119 279.5 253t283.5 220l390 -311v-136q-45 -4 -93.5 -47t-48.5 -112q0 -85 47.5 -141t130.5 -56q99 0 167.5 71.5t68.5 203.5v378l-414 340l414 336v379q0 134 -68 203.5t-168 69.5 q-84 0 -131 -54t-47 -143q0 -36 15 -66t38.5 -49t46 -30t42.5 -15v-135l-390 -309q-391 299 -563 469q-31 -58 -45.5 -84.5t-45.5 -80.5t-51 -82.5t-54 -76t-63 -77t-70.5 -69.5t-83 -69t-93.5 -60t-110 -57zM600 614q35 20 116.5 104t102.5 120q32 -40 123.5 -117 t140.5 -107q-1 -1 -76 -64t-121.5 -105t-66.5 -68q-18 32 -97.5 116.5t-121.5 120.5z" />
<glyph unicode="t" d="M293 604q0 -29 18.5 -48t44.5 -17h318v-846q0 -27 18 -45.5t45 -18.5h584q28 0 46.5 18t18.5 46v846h316q24 -2 44.5 18t20.5 47q0 23 -14 37l-674 942q-14 27 -49 27h-2q-36 -1 -51 -31l-672 -938q-12 -15 -12 -37z" />
<glyph unicode="u" d="M293 635q0 -22 12 -37l672 -938q15 -30 51 -31h2q34 0 49 27l674 942q14 14 14 37q0 27 -20.5 47t-44.5 18h-316v846q0 28 -18.5 46t-46.5 18h-584q-27 0 -45 -18t-18 -46v-846h-318q-26 2 -44.5 -17t-18.5 -48z" />
<glyph unicode="v" d="M33 592q0 74 55.5 129t134.5 55q60 0 106 -35.5t62 -85.5q60 25 108.5 50t121.5 77t136 115.5t137.5 165.5t139.5 227q110 -99 199 -147q-78 -112 -244 -244.5t-321 -208.5v-8q49 0 123.5 16.5t173 52.5t212 108.5t209.5 168.5q145 -105 189 -133q-55 -73 -258 -148.5 t-496 -132.5v-4q43 -3 95 -3q148 -1 362 27q290 38 481 120q124 -100 236 -162q-101 -56 -236 -170q-130 56 -324.5 92.5t-352.5 47.5q-102 7 -181 7q-43 0 -80 -2v-8q295 -56 497 -130t257 -148q-40 -25 -107.5 -75t-81.5 -59q-78 78 -169 140.5t-170 99.5t-156.5 62 t-131 34t-91.5 9v-7q157 -76 322.5 -206.5t242.5 -245.5q-70 -36 -199 -146q-65 125 -140 227t-136.5 164t-136.5 115t-121.5 77t-108.5 52q-16 -50 -62 -85.5t-106 -35.5q-79 0 -134.5 55.5t-55.5 135.5z" />
<glyph unicode="w" d="M33 592q109 61 235 162q190 -82 480 -120q215 -28 363 -27q51 0 95 3v4q-293 57 -495.5 132.5t-257.5 148.5q36 23 188 133q96 -96 209.5 -168.5t212.5 -108.5t173.5 -52.5t123.5 -16.5v8q-155 76 -321 208.5t-244 244.5q87 47 198 147q65 -125 139.5 -227t137.5 -165.5 t136 -115.5t121.5 -77t108.5 -50q16 50 62 85.5t106 35.5q79 0 135 -55t56 -129q0 -80 -55.5 -135.5t-135.5 -55.5q-60 0 -106 35.5t-62 85.5q-62 -28 -108.5 -52t-121.5 -77t-136.5 -115t-136.5 -164t-140 -227l-23 19q-22 19 -30 26t-30.5 25t-37.5 28.5t-36.5 24 t-40.5 23.5q77 115 242.5 245.5t322.5 206.5v7q-38 0 -91.5 -9t-131.5 -34t-157 -62t-170 -99.5t-169 -140.5q-15 10 -82 59.5t-106 74.5q55 74 256.5 148t496.5 130v8q-37 2 -80 2q-80 0 -182 -7q-158 -11 -352 -47.5t-324 -92.5q-137 115 -235 170z" />
<glyph unicode="x" d="M106 915l500 9l-153 471l391 -289l170 510l170 -522l418 295l-152 -465h471l-408 -303l422 -304l-499 -6l153 -467l-391 283l-170 -510l-170 530l-418 -303l152 473h-471l407 297zM283 858l448 -319l-182 -543l6 -8l459 344l461 -336l6 6l-176 543l446 313v8h-553 l-180 568h-6l-181 -568h-548v-8zM750 549l159 115l-65 194l170 -119l164 119l-62 -194l156 -115h-193l-65 -201l-68 201h-196z" />
<glyph unicode="y" />
<glyph unicode="z" />
<glyph unicode="&#x2000;" horiz-adv-x="817" />
<glyph unicode="&#x2001;" horiz-adv-x="1634" />
<glyph unicode="&#x2002;" horiz-adv-x="817" />
<glyph unicode="&#x2003;" horiz-adv-x="1634" />
<glyph unicode="&#x2004;" horiz-adv-x="544" />
<glyph unicode="&#x2005;" horiz-adv-x="408" />
<glyph unicode="&#x2006;" horiz-adv-x="272" />
<glyph unicode="&#x2007;" horiz-adv-x="272" />
<glyph unicode="&#x2008;" horiz-adv-x="204" />
<glyph unicode="&#x2009;" horiz-adv-x="326" />
<glyph unicode="&#x200a;" horiz-adv-x="90" />
<glyph unicode="&#x202f;" horiz-adv-x="326" />
<glyph unicode="&#x205f;" horiz-adv-x="408" />
<glyph unicode="&#xe000;" horiz-adv-x="1617" d="M0 0v1618h1618v-1618h-1618z" />
</font>
</defs>
</svg>
